<svg width="22" height="30" viewBox="0 0 22 30" fill="none" xmlns="http://www.w3.org/2000/svg">
<path d="M18.7443 10.8179H18.2556V7.25494C18.2558 3.25457 15.0009 0 11.0001 0C6.99944 0 3.74457 3.25457 3.74457 7.25494V10.8179H3.25564C1.83035 10.8179 0.670654 11.9776 0.670654 13.4029V27.4149C0.670654 28.8402 1.83035 29.9999 3.25564 29.9999H18.7443C20.1696 29.9999 21.3293 28.8402 21.3293 27.4149V13.4029C21.3293 11.9776 20.1697 10.8179 18.7443 10.8179ZM5.96027 7.25494C5.96027 4.47631 8.22117 2.2157 11.0001 2.2157C13.779 2.2157 16.0399 4.47631 16.0399 7.25494V10.8179H5.96027V7.25494ZM19.1136 27.415C19.1136 27.6152 18.9444 27.7843 18.7443 27.7843H3.25564C3.05549 27.7843 2.88636 27.6152 2.88636 27.415V13.4029C2.88636 13.2028 3.05549 13.0336 3.25564 13.0336H4.85242H17.1478H18.7443C18.9444 13.0336 19.1136 13.2028 19.1136 13.4029V27.415Z" fill="#559F94"/>
<path d="M10.9998 17.1804C10.388 17.1804 9.89197 17.6763 9.89197 18.2883V22.5299C9.89197 23.1418 10.388 23.6377 10.9998 23.6377C11.6117 23.6377 12.1077 23.1418 12.1077 22.5299V18.2883C12.1077 17.6763 11.6117 17.1804 10.9998 17.1804Z" fill="#559F94"/>
</svg>
