<svg width="35" height="33" viewBox="0 0 35 33" fill="none" xmlns="http://www.w3.org/2000/svg">
<rect width="35" height="32.0833" fill="white"/>
<path d="M3.16732 20V11.5193H4.96556V18.515H8.40542V20H3.16732ZM15.639 16.7458C15.639 17.2872 15.5655 17.7667 15.4186 18.1844C15.2755 18.602 15.0647 18.9559 14.7863 19.2459C14.5117 19.5321 14.1791 19.7486 13.7885 19.8956C13.4018 20.0425 12.9648 20.116 12.4776 20.116C12.0212 20.116 11.6017 20.0425 11.2188 19.8956C10.8398 19.7486 10.5092 19.5321 10.2269 19.2459C9.94843 18.9559 9.73187 18.602 9.57718 18.1844C9.42636 17.7667 9.35095 17.2872 9.35095 16.7458C9.35095 16.0265 9.47857 15.4174 9.7338 14.9185C9.98904 14.4196 10.3526 14.0407 10.8244 13.7816C11.2961 13.5225 11.8588 13.3929 12.5124 13.3929C13.1195 13.3929 13.6571 13.5225 14.125 13.7816C14.5968 14.0407 14.9661 14.4196 15.2329 14.9185C15.5036 15.4174 15.639 16.0265 15.639 16.7458ZM11.155 16.7458C11.155 17.1712 11.2014 17.5289 11.2942 17.8189C11.387 18.1089 11.532 18.3274 11.7293 18.4744C11.9265 18.6213 12.1837 18.6948 12.5008 18.6948C12.814 18.6948 13.0673 18.6213 13.2607 18.4744C13.4579 18.3274 13.601 18.1089 13.6899 17.8189C13.7827 17.5289 13.8292 17.1712 13.8292 16.7458C13.8292 16.3165 13.7827 15.9607 13.6899 15.6784C13.601 15.3922 13.4579 15.1776 13.2607 15.0345C13.0635 14.8914 12.8063 14.8199 12.4892 14.8199C12.0212 14.8199 11.6809 14.9804 11.4682 15.3014C11.2594 15.6223 11.155 16.1038 11.155 16.7458ZM18.9977 22.854C18.0927 22.854 17.4005 22.6954 16.921 22.3783C16.4453 22.0651 16.2075 21.6242 16.2075 21.0557C16.2075 20.6652 16.3293 20.3384 16.5729 20.0754C16.8166 19.8124 17.1743 19.6249 17.6461 19.5127C17.4643 19.4354 17.3058 19.3097 17.1704 19.1357C17.0351 18.9578 16.9674 18.7702 16.9674 18.573C16.9674 18.3255 17.0389 18.1205 17.182 17.9581C17.3251 17.7918 17.532 17.6294 17.8027 17.4709C17.4624 17.3239 17.1917 17.088 16.9906 16.7632C16.7934 16.4383 16.6947 16.0555 16.6947 15.6146C16.6947 15.1428 16.7972 14.7426 17.0022 14.4138C17.211 14.0813 17.5127 13.828 17.9071 13.6539C18.3054 13.4799 18.7888 13.3929 19.3573 13.3929C19.4772 13.3929 19.6164 13.4006 19.775 13.4161C19.9335 13.4316 20.0785 13.449 20.21 13.4683C20.3454 13.4877 20.4362 13.5031 20.4827 13.5147H22.745V14.4138L21.7298 14.6749C21.8226 14.818 21.8922 14.9707 21.9386 15.1331C21.9851 15.2956 22.0083 15.4677 22.0083 15.6494C22.0083 16.3455 21.7646 16.8888 21.2774 17.2794C20.794 17.6662 20.1211 17.8595 19.2587 17.8595C19.0537 17.8479 18.8604 17.8324 18.6786 17.8131C18.5897 17.8827 18.522 17.9562 18.4756 18.0335C18.4292 18.1109 18.406 18.1921 18.406 18.2772C18.406 18.3622 18.4408 18.4338 18.5104 18.4918C18.5839 18.5459 18.6921 18.5885 18.8352 18.6194C18.9822 18.6465 19.1639 18.66 19.3805 18.66H20.4827C21.1942 18.66 21.7356 18.8128 22.1069 19.1183C22.482 19.4238 22.6695 19.8724 22.6695 20.4641C22.6695 21.222 22.3524 21.8098 21.7182 22.2275C21.0879 22.6452 20.181 22.854 18.9977 22.854ZM19.0731 21.6996C19.4946 21.6996 19.8562 21.659 20.1578 21.5778C20.4633 21.5005 20.6973 21.3883 20.8597 21.2414C21.0221 21.0983 21.1033 20.9262 21.1033 20.7251C21.1033 20.5627 21.055 20.4331 20.9583 20.3364C20.8655 20.2436 20.7224 20.1779 20.5291 20.1392C20.3396 20.1005 20.0959 20.0812 19.7982 20.0812H18.8816C18.6651 20.0812 18.4698 20.116 18.2958 20.1856C18.1256 20.2552 17.9902 20.3519 17.8897 20.4757C17.7892 20.6033 17.7389 20.7502 17.7389 20.9165C17.7389 21.1602 17.8549 21.3516 18.0869 21.4908C18.3228 21.63 18.6515 21.6996 19.0731 21.6996ZM19.3573 16.7806C19.6899 16.7806 19.9335 16.6781 20.0882 16.4731C20.2429 16.2682 20.3202 15.9897 20.3202 15.6378C20.3202 15.2472 20.239 14.9553 20.0766 14.7619C19.918 14.5647 19.6783 14.4661 19.3573 14.4661C19.0325 14.4661 18.7888 14.5647 18.6264 14.7619C18.464 14.9553 18.3828 15.2472 18.3828 15.6378C18.3828 15.9897 18.462 16.2682 18.6206 16.4731C18.783 16.6781 19.0286 16.7806 19.3573 16.7806ZM29.7117 16.7458C29.7117 17.2872 29.6382 17.7667 29.4913 18.1844C29.3482 18.602 29.1374 18.9559 28.859 19.2459C28.5844 19.5321 28.2518 19.7486 27.8612 19.8956C27.4745 20.0425 27.0375 20.116 26.5503 20.116C26.0939 20.116 25.6744 20.0425 25.2915 19.8956C24.9125 19.7486 24.5819 19.5321 24.2996 19.2459C24.0211 18.9559 23.8046 18.602 23.6499 18.1844C23.4991 17.7667 23.4236 17.2872 23.4236 16.7458C23.4236 16.0265 23.5513 15.4174 23.8065 14.9185C24.0617 14.4196 24.4252 14.0407 24.897 13.7816C25.3688 13.5225 25.9315 13.3929 26.5851 13.3929C27.1922 13.3929 27.7298 13.5225 28.1977 13.7816C28.6695 14.0407 29.0388 14.4196 29.3056 14.9185C29.5763 15.4174 29.7117 16.0265 29.7117 16.7458ZM25.2277 16.7458C25.2277 17.1712 25.2741 17.5289 25.3669 17.8189C25.4597 18.1089 25.6047 18.3274 25.802 18.4744C25.9992 18.6213 26.2564 18.6948 26.5735 18.6948C26.8867 18.6948 27.14 18.6213 27.3334 18.4744C27.5306 18.3274 27.6737 18.1089 27.7626 17.8189C27.8554 17.5289 27.9019 17.1712 27.9019 16.7458C27.9019 16.3165 27.8554 15.9607 27.7626 15.6784C27.6737 15.3922 27.5306 15.1776 27.3334 15.0345C27.1361 14.8914 26.879 14.8199 26.5619 14.8199C26.0939 14.8199 25.7536 14.9804 25.5409 15.3014C25.3321 15.6223 25.2277 16.1038 25.2277 16.7458Z" fill="black"/>
</svg>
