<svg width="32" height="32" viewBox="0 0 32 32" fill="none" xmlns="http://www.w3.org/2000/svg">
<path d="M15.9998 19C15.7714 19.0067 15.5475 18.9349 15.3656 18.7966C15.1836 18.6583 15.0545 18.4619 14.9998 18.24L13.4898 12.18C13.3995 11.802 13.3986 11.4081 13.4871 11.0297C13.5756 10.6513 13.7512 10.2987 13.9998 10C14.2396 9.69985 14.5439 9.45753 14.8901 9.291C15.2363 9.12447 15.6156 9.03799 15.9998 9.03799C16.384 9.03799 16.7632 9.12447 17.1095 9.291C17.4557 9.45753 17.76 9.69985 17.9998 10C18.2413 10.3042 18.4087 10.6605 18.4885 11.0407C18.5684 11.4208 18.5585 11.8143 18.4598 12.19L16.9998 18.24C16.945 18.4619 16.8159 18.6583 16.634 18.7966C16.452 18.9349 16.2282 19.0067 15.9998 19ZM15.9998 11C15.9143 10.9992 15.8298 11.0187 15.7533 11.057C15.6768 11.0952 15.6105 11.1511 15.5598 11.22C15.5049 11.2856 15.4671 11.3637 15.4497 11.4475C15.4322 11.5312 15.4357 11.6179 15.4598 11.7L15.9998 13.88L16.5398 11.7C16.5639 11.6179 16.5674 11.5312 16.5499 11.4475C16.5325 11.3637 16.4946 11.2856 16.4398 11.22C16.3891 11.1511 16.3228 11.0952 16.2463 11.057C16.1698 11.0187 16.0853 10.9992 15.9998 11Z" fill="#559F94"/>
<path d="M16 23C16.8284 23 17.5 22.3284 17.5 21.5C17.5 20.6716 16.8284 20 16 20C15.1716 20 14.5 20.6716 14.5 21.5C14.5 22.3284 15.1716 23 16 23Z" fill="#559F94"/>
<path d="M16 29C13.4288 29 10.9154 28.2376 8.77759 26.8091C6.63975 25.3806 4.97351 23.3503 3.98957 20.9749C3.00563 18.5994 2.74819 15.9856 3.2498 13.4638C3.75141 10.9421 4.98953 8.62569 6.80762 6.80761C8.6257 4.98953 10.9421 3.7514 13.4638 3.24979C15.9856 2.74818 18.5995 3.00563 20.9749 3.98956C23.3503 4.9735 25.3807 6.63975 26.8091 8.77759C28.2376 10.9154 29 13.4288 29 16C29 19.4478 27.6304 22.7544 25.1924 25.1924C22.7544 27.6304 19.4478 29 16 29ZM16 5C13.8244 5 11.6977 5.64514 9.88873 6.85383C8.07979 8.06253 6.66989 9.78049 5.83733 11.7905C5.00477 13.8005 4.78693 16.0122 5.21137 18.146C5.63581 20.2798 6.68345 22.2398 8.22183 23.7782C9.76021 25.3166 11.7202 26.3642 13.854 26.7886C15.9878 27.2131 18.1995 26.9952 20.2095 26.1627C22.2195 25.3301 23.9375 23.9202 25.1462 22.1113C26.3549 20.3023 27 18.1756 27 16C27 13.0826 25.8411 10.2847 23.7782 8.22182C21.7153 6.15892 18.9174 5 16 5Z" fill="#559F94"/>
</svg>
