<svg width="28" height="31" viewBox="0 0 28 31" fill="none" xmlns="http://www.w3.org/2000/svg">
<path d="M14 19.16C8.72004 19.16 4.42004 14.86 4.42004 9.58C4.42004 4.3 8.72004 0 14 0C19.28 0 23.58 4.3 23.58 9.58C23.58 14.86 19.28 19.16 14 19.16ZM14 2.73C10.23 2.73 7.16004 5.8 7.16004 9.57C7.16004 13.34 10.23 16.41 14 16.41C17.77 16.41 20.84 13.34 20.84 9.57C20.84 5.8 17.77 2.73 14 2.73Z" fill="#559F94"/>
<path d="M27.69 30.11H24.95C24.95 24.07 20.04 19.16 14 19.16C7.96001 19.16 3.05 24.07 3.05 30.11H0.309998C0.309998 22.56 6.45001 16.42 14 16.42C21.55 16.42 27.69 22.56 27.69 30.11Z" fill="#559F94"/>
</svg>
