<svg width="100" height="100" viewBox="0 0 100 100" fill="none" xmlns="http://www.w3.org/2000/svg">
<path d="M49.9994 55.5466C42.9594 55.5466 37.2261 49.8133 37.2261 42.7733C37.2261 35.7333 42.9594 29.9999 49.9994 29.9999C57.0394 29.9999 62.7727 35.7333 62.7727 42.7733C62.7727 49.8133 57.0394 55.5466 49.9994 55.5466ZM49.9994 33.6399C44.9727 33.6399 40.8794 37.7333 40.8794 42.7599C40.8794 47.7866 44.9727 51.8799 49.9994 51.8799C55.0261 51.8799 59.1194 47.7866 59.1194 42.7599C59.1194 37.7333 55.0261 33.6399 49.9994 33.6399Z" fill="#559F94"/>
<path d="M68.2528 70.1466H64.5995C64.5995 62.0933 58.0528 55.5466 49.9995 55.5466C41.9461 55.5466 35.3994 62.0933 35.3994 70.1466H31.7461C31.7461 60.08 39.9328 51.8933 49.9995 51.8933C60.0661 51.8933 68.2528 60.08 68.2528 70.1466Z" fill="#559F94"/>
<circle cx="50" cy="50" r="49.3333" stroke="#559F94" stroke-width="1.33333"/>
</svg>
